<mxfile host="app.diagrams.net" modified="2023-11-10T10:43:34.076Z" agent="Mozilla/5.0 (Windows NT 10.0; Win64; x64) AppleWebKit/537.36 (KHTML, like Gecko) Chrome/119.0.0.0 Safari/537.36 Edg/119.0.0.0" etag="25HE-aTCA-NyU1TjiaLk" version="22.1.0" type="google">
  <diagram name="Page-1" id="5f0bae14-7c28-e335-631c-24af17079c00">
    <mxGraphModel grid="1" page="1" gridSize="10" guides="1" tooltips="1" connect="1" arrows="1" fold="1" pageScale="1" pageWidth="1100" pageHeight="850" background="none" math="0" shadow="0">
      <root>
        <mxCell id="0" />
        <mxCell id="1" parent="0" />
        <mxCell id="15v1ul8EvHflpko3qN6h-3" value="&amp;lt;&amp;lt;component&amp;gt;&amp;gt;&lt;br&gt;UserInterface" style="html=1;whiteSpace=wrap;" vertex="1" parent="1">
          <mxGeometry x="50" y="475" width="190" height="120" as="geometry" />
        </mxCell>
        <mxCell id="15v1ul8EvHflpko3qN6h-4" value="" style="shape=component;align=left;spacingLeft=36;rounded=0;shadow=0;comic=0;labelBackgroundColor=none;strokeWidth=1;fontFamily=Verdana;fontSize=12;html=1;" vertex="1" parent="1">
          <mxGeometry x="180" y="480" width="50" height="40" as="geometry" />
        </mxCell>
        <mxCell id="oD2vcwvpmgaZP8MEJ2Pd-1" value="" style="html=1;labelPosition=center;verticalLabelPosition=top;align=center;verticalAlign=bottom;whiteSpace=wrap;" vertex="1" parent="1">
          <mxGeometry x="457.89" y="400" width="284.21" height="270" as="geometry" />
        </mxCell>
        <mxCell id="oD2vcwvpmgaZP8MEJ2Pd-3" value="&amp;lt;&amp;lt;component&amp;gt;&amp;gt;&lt;br&gt;Sinh viên" style="html=1;whiteSpace=wrap;" vertex="1" parent="1">
          <mxGeometry x="680" y="40" width="190" height="190" as="geometry" />
        </mxCell>
        <mxCell id="oD2vcwvpmgaZP8MEJ2Pd-6" value="" style="ellipse;whiteSpace=wrap;html=1;align=center;aspect=fixed;fillColor=none;strokeColor=none;resizable=0;perimeter=centerPerimeter;rotatable=0;allowArrows=0;points=[];outlineConnect=1;" vertex="1" parent="1">
          <mxGeometry x="420" y="650" width="10" height="10" as="geometry" />
        </mxCell>
        <mxCell id="oD2vcwvpmgaZP8MEJ2Pd-8" value="&amp;lt;&amp;lt;component&amp;gt;&amp;gt;&lt;br&gt;PrintLog" style="html=1;whiteSpace=wrap;" vertex="1" parent="1">
          <mxGeometry x="400" y="150" width="190" height="190" as="geometry" />
        </mxCell>
        <mxCell id="oD2vcwvpmgaZP8MEJ2Pd-9" value="&amp;lt;&amp;lt;component&amp;gt;&amp;gt;&lt;br&gt;Payment" style="html=1;whiteSpace=wrap;" vertex="1" parent="1">
          <mxGeometry x="160" y="160" width="190" height="190" as="geometry" />
        </mxCell>
        <mxCell id="oD2vcwvpmgaZP8MEJ2Pd-10" value="" style="shape=providedRequiredInterface;html=1;verticalLabelPosition=bottom;sketch=0;" vertex="1" parent="1">
          <mxGeometry x="300" y="515" width="40" height="40" as="geometry" />
        </mxCell>
        <mxCell id="oD2vcwvpmgaZP8MEJ2Pd-13" value="" style="endArrow=none;html=1;rounded=0;exitX=1;exitY=0.5;exitDx=0;exitDy=0;entryX=0;entryY=0.5;entryDx=0;entryDy=0;entryPerimeter=0;" edge="1" parent="1" source="15v1ul8EvHflpko3qN6h-3" target="oD2vcwvpmgaZP8MEJ2Pd-10">
          <mxGeometry width="50" height="50" relative="1" as="geometry">
            <mxPoint x="460" y="450" as="sourcePoint" />
            <mxPoint x="510" y="400" as="targetPoint" />
          </mxGeometry>
        </mxCell>
        <mxCell id="oD2vcwvpmgaZP8MEJ2Pd-14" value="" style="endArrow=none;html=1;rounded=0;exitX=1;exitY=0.5;exitDx=0;exitDy=0;entryX=0;entryY=0.5;entryDx=0;entryDy=0;exitPerimeter=0;" edge="1" parent="1" source="oD2vcwvpmgaZP8MEJ2Pd-10" target="oD2vcwvpmgaZP8MEJ2Pd-1">
          <mxGeometry width="50" height="50" relative="1" as="geometry">
            <mxPoint x="250" y="545" as="sourcePoint" />
            <mxPoint x="310" y="545" as="targetPoint" />
          </mxGeometry>
        </mxCell>
        <mxCell id="oD2vcwvpmgaZP8MEJ2Pd-15" value="Xác định" style="text;html=1;strokeColor=none;fillColor=none;align=center;verticalAlign=middle;whiteSpace=wrap;rounded=0;" vertex="1" parent="1">
          <mxGeometry x="290" y="480" width="60" height="30" as="geometry" />
        </mxCell>
        <mxCell id="oD2vcwvpmgaZP8MEJ2Pd-16" value="" style="rounded=0;whiteSpace=wrap;html=1;" vertex="1" parent="1">
          <mxGeometry x="230" y="525" width="20" height="20" as="geometry" />
        </mxCell>
        <mxCell id="oD2vcwvpmgaZP8MEJ2Pd-26" value="" style="ellipse;whiteSpace=wrap;html=1;align=center;aspect=fixed;fillColor=none;strokeColor=none;resizable=0;perimeter=centerPerimeter;rotatable=0;allowArrows=0;points=[];outlineConnect=1;" vertex="1" parent="1">
          <mxGeometry x="590" y="840" width="10" height="10" as="geometry" />
        </mxCell>
        <mxCell id="oD2vcwvpmgaZP8MEJ2Pd-27" value="" style="shape=providedRequiredInterface;html=1;verticalLabelPosition=bottom;sketch=0;" vertex="1" parent="1">
          <mxGeometry x="470" y="705" width="40" height="40" as="geometry" />
        </mxCell>
        <mxCell id="oD2vcwvpmgaZP8MEJ2Pd-30" value="Máy in chỉ định" style="text;html=1;strokeColor=none;fillColor=none;align=center;verticalAlign=middle;whiteSpace=wrap;rounded=0;" vertex="1" parent="1">
          <mxGeometry x="460" y="670" width="60" height="30" as="geometry" />
        </mxCell>
        <mxCell id="oD2vcwvpmgaZP8MEJ2Pd-31" value="" style="endArrow=none;html=1;rounded=0;entryX=0.5;entryY=1;entryDx=0;entryDy=0;exitX=0;exitY=0.5;exitDx=0;exitDy=0;exitPerimeter=0;" edge="1" parent="1" source="oD2vcwvpmgaZP8MEJ2Pd-27" target="15v1ul8EvHflpko3qN6h-3">
          <mxGeometry width="50" height="50" relative="1" as="geometry">
            <mxPoint x="410" y="710" as="sourcePoint" />
            <mxPoint x="290" y="640" as="targetPoint" />
            <Array as="points">
              <mxPoint x="145" y="725" />
            </Array>
          </mxGeometry>
        </mxCell>
        <mxCell id="oD2vcwvpmgaZP8MEJ2Pd-32" value="&amp;lt;&amp;lt;component&amp;gt;&amp;gt;&lt;br&gt;Printing" style="text;html=1;strokeColor=none;fillColor=none;align=center;verticalAlign=middle;whiteSpace=wrap;rounded=0;" vertex="1" parent="1">
          <mxGeometry x="569.99" y="410" width="60" height="30" as="geometry" />
        </mxCell>
      </root>
    </mxGraphModel>
  </diagram>
</mxfile>
